<svg xmlns="http://www.w3.org/2000/svg" viewBox="0 0 128 128" role="img" aria-labelledby="title desc">
  <title id="title">Liberty Tree Compact Logo</title>
  <desc id="desc">Simplified Liberty Tree mark optimized for 32 to 64 pixel rendering.</desc>
  <rect width="128" height="128" rx="0" fill="#fbfaf6"/>
  <rect x="8" y="8" width="112" height="112" fill="none" stroke="#d9c6a3" stroke-width="3"/>
  <g fill="none" stroke="#17375e" stroke-linecap="round" stroke-linejoin="round">
    <path d="M65 101c3-23 2-43-2-62" stroke-width="5"/>
    <path d="M63 43c-18-10-36-11-54-3M64 43c19-15 41-18 65-10M64 60c-22 0-39 6-55 18M65 60c25-3 46 3 64 17" stroke-width="4"/>
    <path d="M20 40c16-18 43-21 61-7M76 33c21-10 47-5 61 13M9 78c19-12 43-14 62-3M72 77c24-12 51-7 65 10" stroke-width="2.7"/>
    <path d="M35 75v18M66 72v21M96 76v18" stroke="#8a6f43" stroke-width="2"/>
    <path d="M31 93h9l2 4v12H29V97zM62 93h9l2 4v12H60V97zM92 94h9l2 4v12H90V98z" stroke="#8a6f43" stroke-width="2"/>
  </g>
</svg>
